<svg xmlns="http://www.w3.org/2000/svg" id="Layer_2" viewBox="0 0 75 75"><defs><radialGradient id="radial-gradient" cx="-4801.14" cy="368.86" r=".08" fx="-4801.14" fy="368.86" gradientTransform="scale(685.62 -685.62) rotate(-78.56 -2626.019 -2750.678)" gradientUnits="userSpaceOnUse"><stop offset="0" stop-color="#fae9a7"/><stop offset=".12" stop-color="#f9e28d"/><stop offset=".42" stop-color="#f6d267"/><stop offset=".64" stop-color="#f4c24b"/><stop offset="1" stop-color="#f2b548"/></radialGradient><style>.cls-1{fill:#804b24}</style></defs><circle cx="37.5" cy="37.5" r="31.1" style="fill:url(#radial-gradient)"/><path d="M29.72 35.74c0 2.15-1.74 3.89-3.89 3.89s-3.89-1.74-3.89-3.89 1.74-3.89 3.89-3.89 3.89 1.74 3.89 3.89ZM53.05 35.74c0 2.15-1.74 3.89-3.89 3.89s-3.89-1.74-3.89-3.89 1.74-3.89 3.89-3.89 3.89 1.74 3.89 3.89Z" class="cls-1"/><path d="M31.34 48.19c0-.89.73-1.62 1.62-1.62h9.07c.89 0 1.62.73 1.62 1.62s-.73 1.62-1.62 1.62h-9.07c-.89 0-1.62-.73-1.62-1.62Z" style="fill-rule:evenodd;fill:#804b24"/></svg>