<svg xmlns="http://www.w3.org/2000/svg" id="Layer_2" viewBox="0 0 75 75"><defs><linearGradient id="linear-gradient" x1="37.5" x2="37.5" y1="-393.06" y2="-413.79" gradientTransform="matrix(1 0 0 -1 0 -354.75)" gradientUnits="userSpaceOnUse"><stop offset="0" stop-color="#573217"/><stop offset=".42" stop-color="#804b24"/></linearGradient><linearGradient id="linear-gradient-2" x1="37.5" x2="37.5" y1="-400.83" y2="-413.79" gradientTransform="matrix(1 0 0 -1 0 -354.75)" gradientUnits="userSpaceOnUse"><stop offset="0" stop-color="#db514b"/><stop offset="1" stop-color="#b4332c"/></linearGradient><radialGradient id="radial-gradient" cx="-4972.85" cy="369.1" r=".08" fx="-4972.85" fy="369.1" gradientTransform="scale(685.62 -685.62) rotate(-78.56 -2712.023 -2855.527)" gradientUnits="userSpaceOnUse"><stop offset="0" stop-color="#fcf6db"/><stop offset=".12" stop-color="#f9e59a"/><stop offset=".52" stop-color="#f6ce4e"/><stop offset="1" stop-color="#f2b548"/></radialGradient><style>.cls-4{fill:#804b24;fill-rule:evenodd}</style></defs><circle cx="37.5" cy="37.5" r="31.1" style="fill:url(#radial-gradient)"/><path d="M37.5 59.05c10.31 0 18.89-7.32 20.68-16.98.38-2.05-1.37-3.75-3.48-3.75H20.3c-2.11 0-3.86 1.7-3.48 3.75 1.79 9.66 10.37 16.98 20.68 16.98Z" style="fill:url(#linear-gradient)"/><path d="M51.58 53.71c-3.73 3.31-8.66 5.33-14.08 5.33s-10.35-2.02-14.08-5.33c1.09-4.32 6.98-7.63 14.08-7.63s12.99 3.3 14.08 7.63Z" style="fill:url(#linear-gradient-2)"/><path d="M20.41 22.25c-.28.85.18 1.77 1.02 2.05l4.34 1.45-5.93 3.39a1.61 1.61 0 0 0-.6 2.21 1.61 1.61 0 0 0 2.21.6l9.07-5.18c.55-.32.87-.93.81-1.57-.06-.64-.49-1.18-1.1-1.38l-7.78-2.59c-.85-.28-1.77.18-2.05 1.02ZM54.59 22.25c.28.85-.18 1.77-1.02 2.05l-4.34 1.45 5.93 3.39c.78.44 1.05 1.43.6 2.21a1.61 1.61 0 0 1-2.21.6l-9.07-5.18a1.64 1.64 0 0 1-.81-1.57c.06-.64.49-1.18 1.1-1.38l7.78-2.59c.85-.28 1.77.18 2.05 1.02Z" class="cls-4"/></svg>