<svg xmlns="http://www.w3.org/2000/svg" xmlns:xlink="http://www.w3.org/1999/xlink" id="Layer_2" viewBox="0 0 75 75"><defs><linearGradient id="linear-gradient" x1="25.34" x2="30.53" y1="-389.1" y2="-396.23" gradientTransform="matrix(1 0 0 -1 0 -354.75)" gradientUnits="userSpaceOnUse"><stop offset="0" stop-color="#482a14"/><stop offset="1" stop-color="#251406"/></linearGradient><linearGradient xlink:href="#linear-gradient" id="linear-gradient-2" x1="44.78" x2="49.97" y1="-389.1" y2="-396.23"/><radialGradient id="radial-gradient" cx="-4630.14" cy="368.61" r=".08" fx="-4630.14" fy="368.61" gradientTransform="scale(685.62 -685.62) rotate(-78.56 -2540.37 -2646.262)" gradientUnits="userSpaceOnUse"><stop offset="0" stop-color="#fae9a7"/><stop offset=".12" stop-color="#f9e28d"/><stop offset=".42" stop-color="#f6d267"/><stop offset=".64" stop-color="#f4c24b"/><stop offset="1" stop-color="#f2b548"/></radialGradient><style>.cls-4{fill:#804b24;fill-rule:evenodd}</style></defs><circle cx="37.5" cy="37.5" r="31.1" style="fill:url(#radial-gradient)"/><path d="M31.67 37.7c0 2.15-1.74 3.89-3.89 3.89s-3.89-1.74-3.89-3.89 1.74-3.89 3.89-3.89 3.89 1.74 3.89 3.89Z" style="fill:url(#linear-gradient)"/><path d="M51.11 37.7c0 2.15-1.74 3.89-3.89 3.89s-3.89-1.74-3.89-3.89 1.74-3.89 3.89-3.89 3.89 1.74 3.89 3.89Z" style="fill:url(#linear-gradient-2)"/><path d="M18.36 30.18c-.58.91-.31 2.11.6 2.68 4.39 2.79 8.02 3.72 12.51 4.18 1.07.11 2.02-.67 2.13-1.74.11-1.07-.67-2.02-1.74-2.13-4.04-.41-7.05-1.2-10.82-3.6-.91-.58-2.11-.31-2.68.6ZM56.64 30.18c.58.91.31 2.11-.6 2.68-4.39 2.79-8.02 3.72-12.51 4.18-1.07.11-2.02-.67-2.13-1.74-.11-1.07.67-2.02 1.74-2.13 4.04-.41 7.05-1.2 10.82-3.6.91-.58 2.11-.31 2.68.6ZM34.33 51.92c-.64.3-.97.64-1.16.88-.69.83-1.91.94-2.74.25a1.94 1.94 0 0 1-.25-2.74c.47-.57 1.24-1.31 2.5-1.91 1.25-.59 2.88-.98 5.04-.98 1.94 0 3.53.46 4.73 1.04 1.14.56 2.06 1.3 2.53 2.02.59.9.33 2.1-.56 2.69-.9.59-2.1.33-2.69-.56 0 .01 0 0-.01 0-.07-.07-.36-.35-.97-.65-.69-.34-1.7-.65-3.01-.65-1.68 0-2.73.3-3.38.61Z" class="cls-4"/></svg>