<svg xmlns="http://www.w3.org/2000/svg" xmlns:xlink="http://www.w3.org/1999/xlink" id="Layer_2" viewBox="0 0 75 75"><defs><linearGradient id="linear-gradient" x1="20.6" x2="23.46" y1="-381.67" y2="-387.55" gradientTransform="matrix(1 0 0 -1 0 -354.75)" gradientUnits="userSpaceOnUse"><stop offset="0" stop-color="#482a14"/><stop offset="1" stop-color="#251406"/></linearGradient><linearGradient xlink:href="#linear-gradient" id="linear-gradient-2" x1="46.12" x2="48.97" y1="-381.67" y2="-387.55"/><radialGradient id="radial-gradient" cx="-4716.35" cy="368.74" r=".08" fx="-4716.35" fy="368.74" gradientTransform="scale(685.62 -685.62) rotate(-78.56 -2583.55 -2698.903)" gradientUnits="userSpaceOnUse"><stop offset="0" stop-color="#fcf6db"/><stop offset=".12" stop-color="#f9e59a"/><stop offset=".52" stop-color="#f6ce4e"/><stop offset="1" stop-color="#f2b548"/></radialGradient><style>.cls-5{fill:#fff;fill-rule:evenodd}</style></defs><circle cx="37.5" cy="37.5" r="31.1" style="fill:url(#radial-gradient)"/><path d="M41.16 27.34c-.48 0-.86.42-.81.89.45 4.59 4.32 8.18 9.03 8.18s8.58-3.59 9.03-8.18a.81.81 0 0 0-.81-.89H41.16ZM15.97 27.34c-.48 0-.86.42-.81.89.45 4.59 4.32 8.18 9.03 8.18s8.58-3.59 9.03-8.18a.81.81 0 0 0-.81-.89H15.97Z" class="cls-5"/><path d="M17.78 27.34c-.14.41-.22.84-.22 1.3 0 2.15 1.74 3.89 3.89 3.89s3.89-1.74 3.89-3.89c0-.45-.08-.89-.22-1.3h-7.33Z" style="fill:url(#linear-gradient)"/><path d="M43.29 27.34c-.14.41-.22.84-.22 1.3 0 2.15 1.74 3.89 3.89 3.89s3.89-1.74 3.89-3.89c0-.45-.08-.89-.22-1.3H43.3Z" style="fill:url(#linear-gradient-2)"/><path d="M37.1 51.38c-1.71 0-3.24-1.25-4.73-2.45-1.22-.99-2.61-2.11-3.63-2.11-2.11 0-4.83 1.9-5.7 2.64a1.617 1.617 0 1 1-2.09-2.47c.41-.35 4.12-3.4 7.79-3.4 2.17 0 4.03 1.5 5.67 2.83.84.68 2.26 1.82 2.74 1.73.58-.12 1.55-1.02 2.4-1.82 1.73-1.62 3.88-3.64 6.67-3.22 3.67.54 7.43 2.62 7.59 2.7.78.43 1.06 1.42.63 2.2s-1.42 1.06-2.2.63c-.03-.02-3.41-1.88-6.48-2.33-1.24-.18-2.63 1.12-3.98 2.38-1.28 1.2-2.5 2.33-3.97 2.63-.23.05-.46.07-.69.07Z" style="fill:#804b24"/></svg>