<svg xmlns="http://www.w3.org/2000/svg" id="Layer_2" viewBox="0 0 75 75"><defs><radialGradient id="radial-gradient" cx="-4887.35" cy="368.98" r=".08" fx="-4887.35" fy="368.98" gradientTransform="scale(685.62 -685.62) rotate(-78.56 -2669.199 -2803.32)" gradientUnits="userSpaceOnUse"><stop offset="0" stop-color="#fae9a7"/><stop offset=".12" stop-color="#f9e28d"/><stop offset=".42" stop-color="#f6d267"/><stop offset=".64" stop-color="#f4c24b"/><stop offset="1" stop-color="#f2b548"/></radialGradient><style>.cls-2{fill:#804b24;fill-rule:evenodd}</style></defs><circle cx="37.5" cy="37.5" r="31.1" style="fill:url(#radial-gradient)"/><path d="M25.37 28.32c.59-.46 1.43-.46 2.02.02l5.57 4.51c.7.56.8 1.58.24 2.28-.56.7-1.58.8-2.28.24l-4.57-3.7-4.75 3.72c-.7.55-1.72.43-2.27-.28-.55-.7-.43-1.72.28-2.27l5.77-4.51ZM47.7 28.31a1.61 1.61 0 0 1 2.02.02l5.57 4.51c.7.56.8 1.58.24 2.28-.56.7-1.58.8-2.28.24l-4.56-3.7-4.76 3.73c-.7.55-1.72.43-2.27-.28-.55-.7-.43-1.72.28-2.27l5.78-4.52ZM27.05 46.1c.42-.58 1.23-.72 1.81-.3 1.82 1.3 4.65 2.35 8.56 2.35s6.74-1.05 8.56-2.35a1.298 1.298 0 0 1 1.51 2.11c-2.32 1.66-5.7 2.83-10.07 2.83s-7.75-1.17-10.07-2.83c-.58-.42-.72-1.23-.3-1.81Z" class="cls-2"/></svg>